<mxfile host="app.diagrams.net" modified="2024-06-28T07:51:30.640Z" agent="Mozilla/5.0 (Windows NT 10.0; Win64; x64) AppleWebKit/537.36 (KHTML, like Gecko) Chrome/126.0.0.0 Safari/537.36 Edg/126.0.0.0" etag="501p9Lbr5hycwmk2kAus" version="24.2.5" type="github">
  <diagram id="C5RBs43oDa-KdzZeNtuy" name="Page-1">
    <mxGraphModel dx="3139" dy="1468" grid="1" gridSize="10" guides="1" tooltips="1" connect="1" arrows="1" fold="1" page="1" pageScale="1" pageWidth="827" pageHeight="1169" math="0" shadow="0">
      <root>
        <mxCell id="WIyWlLk6GJQsqaUBKTNV-0" />
        <mxCell id="WIyWlLk6GJQsqaUBKTNV-1" parent="WIyWlLk6GJQsqaUBKTNV-0" />
        <mxCell id="zkfFHV4jXpPFQw0GAbJ--17" value="Address" style="swimlane;fontStyle=0;align=center;verticalAlign=top;childLayout=stackLayout;horizontal=1;startSize=26;horizontalStack=0;resizeParent=1;resizeLast=0;collapsible=1;marginBottom=0;rounded=0;shadow=0;strokeWidth=1;" parent="WIyWlLk6GJQsqaUBKTNV-1" vertex="1">
          <mxGeometry x="574" y="800" width="160" height="216" as="geometry">
            <mxRectangle x="550" y="140" width="160" height="26" as="alternateBounds" />
          </mxGeometry>
        </mxCell>
        <mxCell id="zkfFHV4jXpPFQw0GAbJ--18" value="Street" style="text;align=left;verticalAlign=top;spacingLeft=4;spacingRight=4;overflow=hidden;rotatable=0;points=[[0,0.5],[1,0.5]];portConstraint=eastwest;" parent="zkfFHV4jXpPFQw0GAbJ--17" vertex="1">
          <mxGeometry y="26" width="160" height="26" as="geometry" />
        </mxCell>
        <mxCell id="zkfFHV4jXpPFQw0GAbJ--19" value="City" style="text;align=left;verticalAlign=top;spacingLeft=4;spacingRight=4;overflow=hidden;rotatable=0;points=[[0,0.5],[1,0.5]];portConstraint=eastwest;rounded=0;shadow=0;html=0;" parent="zkfFHV4jXpPFQw0GAbJ--17" vertex="1">
          <mxGeometry y="52" width="160" height="26" as="geometry" />
        </mxCell>
        <mxCell id="zkfFHV4jXpPFQw0GAbJ--20" value="State" style="text;align=left;verticalAlign=top;spacingLeft=4;spacingRight=4;overflow=hidden;rotatable=0;points=[[0,0.5],[1,0.5]];portConstraint=eastwest;rounded=0;shadow=0;html=0;" parent="zkfFHV4jXpPFQw0GAbJ--17" vertex="1">
          <mxGeometry y="78" width="160" height="26" as="geometry" />
        </mxCell>
        <mxCell id="zkfFHV4jXpPFQw0GAbJ--21" value="Postal Code" style="text;align=left;verticalAlign=top;spacingLeft=4;spacingRight=4;overflow=hidden;rotatable=0;points=[[0,0.5],[1,0.5]];portConstraint=eastwest;rounded=0;shadow=0;html=0;" parent="zkfFHV4jXpPFQw0GAbJ--17" vertex="1">
          <mxGeometry y="104" width="160" height="26" as="geometry" />
        </mxCell>
        <mxCell id="zkfFHV4jXpPFQw0GAbJ--22" value="Country" style="text;align=left;verticalAlign=top;spacingLeft=4;spacingRight=4;overflow=hidden;rotatable=0;points=[[0,0.5],[1,0.5]];portConstraint=eastwest;rounded=0;shadow=0;html=0;" parent="zkfFHV4jXpPFQw0GAbJ--17" vertex="1">
          <mxGeometry y="130" width="160" height="26" as="geometry" />
        </mxCell>
        <mxCell id="zkfFHV4jXpPFQw0GAbJ--23" value="" style="line;html=1;strokeWidth=1;align=left;verticalAlign=middle;spacingTop=-1;spacingLeft=3;spacingRight=3;rotatable=0;labelPosition=right;points=[];portConstraint=eastwest;" parent="zkfFHV4jXpPFQw0GAbJ--17" vertex="1">
          <mxGeometry y="156" width="160" height="8" as="geometry" />
        </mxCell>
        <mxCell id="zkfFHV4jXpPFQw0GAbJ--24" value="Validate" style="text;align=left;verticalAlign=top;spacingLeft=4;spacingRight=4;overflow=hidden;rotatable=0;points=[[0,0.5],[1,0.5]];portConstraint=eastwest;" parent="zkfFHV4jXpPFQw0GAbJ--17" vertex="1">
          <mxGeometry y="164" width="160" height="26" as="geometry" />
        </mxCell>
        <mxCell id="zkfFHV4jXpPFQw0GAbJ--25" value="Output As Label" style="text;align=left;verticalAlign=top;spacingLeft=4;spacingRight=4;overflow=hidden;rotatable=0;points=[[0,0.5],[1,0.5]];portConstraint=eastwest;" parent="zkfFHV4jXpPFQw0GAbJ--17" vertex="1">
          <mxGeometry y="190" width="160" height="26" as="geometry" />
        </mxCell>
        <mxCell id="98jvWtRxm2SsTrjCTN04-0" value="Person" style="swimlane;fontStyle=2;align=center;verticalAlign=top;childLayout=stackLayout;horizontal=1;startSize=26;horizontalStack=0;resizeParent=1;resizeLast=0;collapsible=1;marginBottom=0;rounded=0;shadow=0;strokeWidth=1;" vertex="1" parent="WIyWlLk6GJQsqaUBKTNV-1">
          <mxGeometry x="220" y="790" width="160" height="138" as="geometry">
            <mxRectangle x="230" y="140" width="160" height="26" as="alternateBounds" />
          </mxGeometry>
        </mxCell>
        <mxCell id="98jvWtRxm2SsTrjCTN04-1" value="Name" style="text;align=left;verticalAlign=top;spacingLeft=4;spacingRight=4;overflow=hidden;rotatable=0;points=[[0,0.5],[1,0.5]];portConstraint=eastwest;" vertex="1" parent="98jvWtRxm2SsTrjCTN04-0">
          <mxGeometry y="26" width="160" height="26" as="geometry" />
        </mxCell>
        <mxCell id="98jvWtRxm2SsTrjCTN04-2" value="Phone Number" style="text;align=left;verticalAlign=top;spacingLeft=4;spacingRight=4;overflow=hidden;rotatable=0;points=[[0,0.5],[1,0.5]];portConstraint=eastwest;rounded=0;shadow=0;html=0;" vertex="1" parent="98jvWtRxm2SsTrjCTN04-0">
          <mxGeometry y="52" width="160" height="26" as="geometry" />
        </mxCell>
        <mxCell id="98jvWtRxm2SsTrjCTN04-3" value="Email Address" style="text;align=left;verticalAlign=top;spacingLeft=4;spacingRight=4;overflow=hidden;rotatable=0;points=[[0,0.5],[1,0.5]];portConstraint=eastwest;rounded=0;shadow=0;html=0;" vertex="1" parent="98jvWtRxm2SsTrjCTN04-0">
          <mxGeometry y="78" width="160" height="26" as="geometry" />
        </mxCell>
        <mxCell id="98jvWtRxm2SsTrjCTN04-4" value="" style="line;html=1;strokeWidth=1;align=left;verticalAlign=middle;spacingTop=-1;spacingLeft=3;spacingRight=3;rotatable=0;labelPosition=right;points=[];portConstraint=eastwest;" vertex="1" parent="98jvWtRxm2SsTrjCTN04-0">
          <mxGeometry y="104" width="160" height="8" as="geometry" />
        </mxCell>
        <mxCell id="98jvWtRxm2SsTrjCTN04-5" value="Purchase Parking Pass" style="text;align=left;verticalAlign=top;spacingLeft=4;spacingRight=4;overflow=hidden;rotatable=0;points=[[0,0.5],[1,0.5]];portConstraint=eastwest;" vertex="1" parent="98jvWtRxm2SsTrjCTN04-0">
          <mxGeometry y="112" width="160" height="26" as="geometry" />
        </mxCell>
        <mxCell id="98jvWtRxm2SsTrjCTN04-6" value="0..1" style="resizable=0;align=left;verticalAlign=bottom;labelBackgroundColor=none;fontSize=12;" connectable="0" vertex="1" parent="WIyWlLk6GJQsqaUBKTNV-1">
          <mxGeometry x="380" y="863.2413793103448" as="geometry" />
        </mxCell>
        <mxCell id="98jvWtRxm2SsTrjCTN04-18" value="" style="endArrow=classic;html=1;rounded=0;fontSize=12;startSize=8;endSize=8;curved=1;entryX=-0.011;entryY=1.026;entryDx=0;entryDy=0;exitX=1;exitY=0.5;exitDx=0;exitDy=0;entryPerimeter=0;" edge="1" parent="WIyWlLk6GJQsqaUBKTNV-1" source="98jvWtRxm2SsTrjCTN04-34" target="98jvWtRxm2SsTrjCTN04-39">
          <mxGeometry width="50" height="50" relative="1" as="geometry">
            <mxPoint x="296.1600000000002" y="180.00200000000007" as="sourcePoint" />
            <mxPoint x="360.0000000000001" y="247.66800000000012" as="targetPoint" />
          </mxGeometry>
        </mxCell>
        <mxCell id="98jvWtRxm2SsTrjCTN04-21" value="" style="endArrow=none;html=1;rounded=0;fontSize=12;startSize=8;endSize=8;curved=1;exitX=0.446;exitY=0.019;exitDx=0;exitDy=0;exitPerimeter=0;" edge="1" parent="WIyWlLk6GJQsqaUBKTNV-1">
          <mxGeometry width="50" height="50" relative="1" as="geometry">
            <mxPoint x="187.11000000000013" y="472.09000000000015" as="sourcePoint" />
            <mxPoint x="186" y="380" as="targetPoint" />
          </mxGeometry>
        </mxCell>
        <mxCell id="98jvWtRxm2SsTrjCTN04-34" value="Estore" style="swimlane;fontStyle=0;childLayout=stackLayout;horizontal=1;startSize=26;fillColor=none;horizontalStack=0;resizeParent=1;resizeParentMax=0;resizeLast=0;collapsible=1;marginBottom=0;whiteSpace=wrap;html=1;" vertex="1" parent="WIyWlLk6GJQsqaUBKTNV-1">
          <mxGeometry x="75.12" y="216" width="160" height="52" as="geometry" />
        </mxCell>
        <mxCell id="98jvWtRxm2SsTrjCTN04-35" value="+ users: Users" style="text;strokeColor=none;fillColor=none;align=left;verticalAlign=top;spacingLeft=4;spacingRight=4;overflow=hidden;rotatable=0;points=[[0,0.5],[1,0.5]];portConstraint=eastwest;whiteSpace=wrap;html=1;" vertex="1" parent="98jvWtRxm2SsTrjCTN04-34">
          <mxGeometry y="26" width="160" height="26" as="geometry" />
        </mxCell>
        <mxCell id="98jvWtRxm2SsTrjCTN04-38" value="&lt;span style=&quot;text-wrap: nowrap;&quot;&gt;Users&lt;/span&gt;" style="swimlane;fontStyle=0;childLayout=stackLayout;horizontal=1;startSize=26;fillColor=none;horizontalStack=0;resizeParent=1;resizeParentMax=0;resizeLast=0;collapsible=1;marginBottom=0;whiteSpace=wrap;html=1;" vertex="1" parent="WIyWlLk6GJQsqaUBKTNV-1">
          <mxGeometry x="360" y="190" width="160" height="104" as="geometry" />
        </mxCell>
        <mxCell id="98jvWtRxm2SsTrjCTN04-39" value="+&amp;nbsp;&lt;span style=&quot;text-wrap: nowrap;&quot;&gt;age&lt;/span&gt;:&amp;nbsp;&lt;span style=&quot;text-wrap: nowrap;&quot;&gt;&amp;nbsp;int&lt;/span&gt;" style="text;strokeColor=none;fillColor=none;align=left;verticalAlign=top;spacingLeft=4;spacingRight=4;overflow=hidden;rotatable=0;points=[[0,0.5],[1,0.5]];portConstraint=eastwest;whiteSpace=wrap;html=1;" vertex="1" parent="98jvWtRxm2SsTrjCTN04-38">
          <mxGeometry y="26" width="160" height="26" as="geometry" />
        </mxCell>
        <mxCell id="98jvWtRxm2SsTrjCTN04-40" value="+&amp;nbsp;&lt;span style=&quot;text-wrap: nowrap;&quot;&gt;emailAddress&lt;/span&gt;:&amp;nbsp;&lt;span style=&quot;text-wrap: nowrap;&quot;&gt;String&lt;/span&gt;" style="text;strokeColor=none;fillColor=none;align=left;verticalAlign=top;spacingLeft=4;spacingRight=4;overflow=hidden;rotatable=0;points=[[0,0.5],[1,0.5]];portConstraint=eastwest;whiteSpace=wrap;html=1;" vertex="1" parent="98jvWtRxm2SsTrjCTN04-38">
          <mxGeometry y="52" width="160" height="26" as="geometry" />
        </mxCell>
        <mxCell id="98jvWtRxm2SsTrjCTN04-41" value="+&amp;nbsp;&lt;span style=&quot;text-wrap: nowrap;&quot;&gt;Admin&lt;/span&gt;:&amp;nbsp;&lt;span style=&quot;text-wrap: nowrap;&quot;&gt;String&lt;/span&gt;" style="text;strokeColor=none;fillColor=none;align=left;verticalAlign=top;spacingLeft=4;spacingRight=4;overflow=hidden;rotatable=0;points=[[0,0.5],[1,0.5]];portConstraint=eastwest;whiteSpace=wrap;html=1;" vertex="1" parent="98jvWtRxm2SsTrjCTN04-38">
          <mxGeometry y="78" width="160" height="26" as="geometry" />
        </mxCell>
        <mxCell id="98jvWtRxm2SsTrjCTN04-42" value="" style="endArrow=none;html=1;edgeStyle=orthogonalEdgeStyle;rounded=0;fontSize=12;startSize=8;endSize=8;curved=1;" edge="1" parent="WIyWlLk6GJQsqaUBKTNV-1">
          <mxGeometry relative="1" as="geometry">
            <mxPoint x="186" y="380" as="sourcePoint" />
            <mxPoint x="356" y="380" as="targetPoint" />
          </mxGeometry>
        </mxCell>
        <mxCell id="98jvWtRxm2SsTrjCTN04-45" value="" style="endArrow=open;endFill=1;endSize=12;html=1;rounded=0;fontSize=12;curved=1;entryX=0.494;entryY=1.237;entryDx=0;entryDy=0;entryPerimeter=0;" edge="1" parent="WIyWlLk6GJQsqaUBKTNV-1" target="98jvWtRxm2SsTrjCTN04-41">
          <mxGeometry width="160" relative="1" as="geometry">
            <mxPoint x="439" y="380" as="sourcePoint" />
            <mxPoint x="430" y="340" as="targetPoint" />
          </mxGeometry>
        </mxCell>
        <mxCell id="98jvWtRxm2SsTrjCTN04-46" value="Sellers" style="swimlane;fontStyle=0;childLayout=stackLayout;horizontal=1;startSize=26;fillColor=none;horizontalStack=0;resizeParent=1;resizeParentMax=0;resizeLast=0;collapsible=1;marginBottom=0;whiteSpace=wrap;html=1;" vertex="1" parent="WIyWlLk6GJQsqaUBKTNV-1">
          <mxGeometry x="590" y="470" width="200" height="79" as="geometry" />
        </mxCell>
        <mxCell id="98jvWtRxm2SsTrjCTN04-50" value="" style="endArrow=none;html=1;edgeStyle=orthogonalEdgeStyle;rounded=0;fontSize=12;startSize=8;endSize=8;curved=1;" edge="1" parent="WIyWlLk6GJQsqaUBKTNV-1">
          <mxGeometry relative="1" as="geometry">
            <mxPoint x="350" y="380" as="sourcePoint" />
            <mxPoint x="550" y="380" as="targetPoint" />
          </mxGeometry>
        </mxCell>
        <mxCell id="98jvWtRxm2SsTrjCTN04-60" value="" style="endArrow=none;html=1;edgeStyle=orthogonalEdgeStyle;rounded=0;fontSize=12;startSize=8;endSize=8;curved=1;" edge="1" parent="WIyWlLk6GJQsqaUBKTNV-1">
          <mxGeometry relative="1" as="geometry">
            <mxPoint x="540" y="380" as="sourcePoint" />
            <mxPoint x="700" y="380" as="targetPoint" />
          </mxGeometry>
        </mxCell>
        <mxCell id="98jvWtRxm2SsTrjCTN04-69" value="ShoppingCart" style="swimlane;fontStyle=0;childLayout=stackLayout;horizontal=1;startSize=26;fillColor=none;horizontalStack=0;resizeParent=1;resizeParentMax=0;resizeLast=0;collapsible=1;marginBottom=0;whiteSpace=wrap;html=1;" vertex="1" parent="WIyWlLk6GJQsqaUBKTNV-1">
          <mxGeometry x="-129" y="568" width="140" height="52" as="geometry" />
        </mxCell>
        <mxCell id="98jvWtRxm2SsTrjCTN04-70" value="+ items : Items" style="text;strokeColor=none;fillColor=none;align=left;verticalAlign=top;spacingLeft=4;spacingRight=4;overflow=hidden;rotatable=0;points=[[0,0.5],[1,0.5]];portConstraint=eastwest;whiteSpace=wrap;html=1;" vertex="1" parent="98jvWtRxm2SsTrjCTN04-69">
          <mxGeometry y="26" width="140" height="26" as="geometry" />
        </mxCell>
        <mxCell id="98jvWtRxm2SsTrjCTN04-75" value="" style="endArrow=open;endFill=1;endSize=12;html=1;rounded=0;fontSize=12;curved=1;entryX=0;entryY=0.5;entryDx=0;entryDy=0;" edge="1" parent="WIyWlLk6GJQsqaUBKTNV-1" target="98jvWtRxm2SsTrjCTN04-69">
          <mxGeometry width="160" relative="1" as="geometry">
            <mxPoint x="-200" y="594" as="sourcePoint" />
            <mxPoint x="-287.9000000000001" y="590.004" as="targetPoint" />
          </mxGeometry>
        </mxCell>
        <mxCell id="98jvWtRxm2SsTrjCTN04-76" value="" style="endArrow=none;html=1;edgeStyle=orthogonalEdgeStyle;rounded=0;fontSize=12;startSize=8;endSize=8;curved=1;" edge="1" parent="WIyWlLk6GJQsqaUBKTNV-1">
          <mxGeometry relative="1" as="geometry">
            <mxPoint x="-200" y="685" as="sourcePoint" />
            <mxPoint x="-200" y="594" as="targetPoint" />
            <Array as="points">
              <mxPoint x="-200" y="619.35" />
              <mxPoint x="-200" y="619.35" />
            </Array>
          </mxGeometry>
        </mxCell>
        <mxCell id="98jvWtRxm2SsTrjCTN04-91" value="" style="endArrow=diamondThin;endFill=1;endSize=24;html=1;rounded=0;fontSize=12;curved=1;" edge="1" parent="WIyWlLk6GJQsqaUBKTNV-1">
          <mxGeometry width="160" relative="1" as="geometry">
            <mxPoint x="-200" y="685" as="sourcePoint" />
            <mxPoint x="-130" y="684.76" as="targetPoint" />
          </mxGeometry>
        </mxCell>
        <mxCell id="98jvWtRxm2SsTrjCTN04-92" value="Items" style="swimlane;fontStyle=0;childLayout=stackLayout;horizontal=1;startSize=26;fillColor=none;horizontalStack=0;resizeParent=1;resizeParentMax=0;resizeLast=0;collapsible=1;marginBottom=0;whiteSpace=wrap;html=1;" vertex="1" parent="WIyWlLk6GJQsqaUBKTNV-1">
          <mxGeometry x="-130" y="660" width="140" height="78" as="geometry" />
        </mxCell>
        <mxCell id="98jvWtRxm2SsTrjCTN04-94" value="+ qualityProduct: String" style="text;strokeColor=none;fillColor=none;align=left;verticalAlign=top;spacingLeft=4;spacingRight=4;overflow=hidden;rotatable=0;points=[[0,0.5],[1,0.5]];portConstraint=eastwest;whiteSpace=wrap;html=1;" vertex="1" parent="98jvWtRxm2SsTrjCTN04-92">
          <mxGeometry y="26" width="140" height="26" as="geometry" />
        </mxCell>
        <mxCell id="98jvWtRxm2SsTrjCTN04-95" value="+ product: Product" style="text;strokeColor=none;fillColor=none;align=left;verticalAlign=top;spacingLeft=4;spacingRight=4;overflow=hidden;rotatable=0;points=[[0,0.5],[1,0.5]];portConstraint=eastwest;whiteSpace=wrap;html=1;" vertex="1" parent="98jvWtRxm2SsTrjCTN04-92">
          <mxGeometry y="52" width="140" height="26" as="geometry" />
        </mxCell>
        <mxCell id="98jvWtRxm2SsTrjCTN04-96" value="" style="endArrow=open;endFill=1;endSize=12;html=1;rounded=0;fontSize=12;curved=1;entryX=0.501;entryY=1.302;entryDx=0;entryDy=0;entryPerimeter=0;" edge="1" parent="WIyWlLk6GJQsqaUBKTNV-1">
          <mxGeometry width="160" relative="1" as="geometry">
            <mxPoint x="-60" y="800" as="sourcePoint" />
            <mxPoint x="-59.8599999999999" y="738.8519999999999" as="targetPoint" />
          </mxGeometry>
        </mxCell>
        <mxCell id="98jvWtRxm2SsTrjCTN04-97" value="" style="endArrow=none;html=1;edgeStyle=orthogonalEdgeStyle;rounded=0;fontSize=12;startSize=8;endSize=8;curved=1;" edge="1" parent="WIyWlLk6GJQsqaUBKTNV-1" source="98jvWtRxm2SsTrjCTN04-69">
          <mxGeometry relative="1" as="geometry">
            <mxPoint x="-140" y="530" as="sourcePoint" />
            <mxPoint x="-60" y="500" as="targetPoint" />
          </mxGeometry>
        </mxCell>
        <mxCell id="98jvWtRxm2SsTrjCTN04-102" value="Product" style="swimlane;fontStyle=0;childLayout=stackLayout;horizontal=1;startSize=26;fillColor=none;horizontalStack=0;resizeParent=1;resizeParentMax=0;resizeLast=0;collapsible=1;marginBottom=0;whiteSpace=wrap;html=1;" vertex="1" parent="WIyWlLk6GJQsqaUBKTNV-1">
          <mxGeometry x="-164" y="801" width="210" height="160" as="geometry" />
        </mxCell>
        <mxCell id="98jvWtRxm2SsTrjCTN04-103" value="+ productId: String" style="text;strokeColor=none;fillColor=none;align=left;verticalAlign=top;spacingLeft=4;spacingRight=4;overflow=hidden;rotatable=0;points=[[0,0.5],[1,0.5]];portConstraint=eastwest;whiteSpace=wrap;html=1;" vertex="1" parent="98jvWtRxm2SsTrjCTN04-102">
          <mxGeometry y="26" width="210" height="26" as="geometry" />
        </mxCell>
        <mxCell id="98jvWtRxm2SsTrjCTN04-104" value="+ productName: String" style="text;strokeColor=none;fillColor=none;align=left;verticalAlign=top;spacingLeft=4;spacingRight=4;overflow=hidden;rotatable=0;points=[[0,0.5],[1,0.5]];portConstraint=eastwest;whiteSpace=wrap;html=1;" vertex="1" parent="98jvWtRxm2SsTrjCTN04-102">
          <mxGeometry y="52" width="210" height="26" as="geometry" />
        </mxCell>
        <mxCell id="98jvWtRxm2SsTrjCTN04-105" value="+ price: String" style="text;strokeColor=none;fillColor=none;align=left;verticalAlign=top;spacingLeft=4;spacingRight=4;overflow=hidden;rotatable=0;points=[[0,0.5],[1,0.5]];portConstraint=eastwest;whiteSpace=wrap;html=1;" vertex="1" parent="98jvWtRxm2SsTrjCTN04-102">
          <mxGeometry y="78" width="210" height="26" as="geometry" />
        </mxCell>
        <mxCell id="98jvWtRxm2SsTrjCTN04-112" style="edgeStyle=none;curved=1;rounded=0;orthogonalLoop=1;jettySize=auto;html=1;exitX=0.75;exitY=0;exitDx=0;exitDy=0;fontSize=12;startSize=8;endSize=8;" edge="1" parent="98jvWtRxm2SsTrjCTN04-102" source="98jvWtRxm2SsTrjCTN04-110" target="98jvWtRxm2SsTrjCTN04-110">
          <mxGeometry relative="1" as="geometry" />
        </mxCell>
        <mxCell id="98jvWtRxm2SsTrjCTN04-116" style="edgeStyle=none;curved=1;rounded=0;orthogonalLoop=1;jettySize=auto;html=1;exitX=0;exitY=1;exitDx=0;exitDy=0;fontSize=12;startSize=8;endSize=8;" edge="1" parent="98jvWtRxm2SsTrjCTN04-102" source="98jvWtRxm2SsTrjCTN04-110" target="98jvWtRxm2SsTrjCTN04-110">
          <mxGeometry relative="1" as="geometry" />
        </mxCell>
        <mxCell id="98jvWtRxm2SsTrjCTN04-117" style="edgeStyle=none;curved=1;rounded=0;orthogonalLoop=1;jettySize=auto;html=1;exitX=0.5;exitY=0;exitDx=0;exitDy=0;fontSize=12;startSize=8;endSize=8;" edge="1" parent="98jvWtRxm2SsTrjCTN04-102" source="98jvWtRxm2SsTrjCTN04-110" target="98jvWtRxm2SsTrjCTN04-110">
          <mxGeometry relative="1" as="geometry" />
        </mxCell>
        <mxCell id="98jvWtRxm2SsTrjCTN04-110" value="&lt;div style=&quot;text-align: left;&quot;&gt;&lt;span style=&quot;font-size: 12px;&quot;&gt;+ productDescription: String&amp;nbsp;&lt;/span&gt;&lt;br&gt;&lt;/div&gt;" style="text;html=1;align=center;verticalAlign=middle;whiteSpace=wrap;rounded=0;fontSize=16;" vertex="1" parent="98jvWtRxm2SsTrjCTN04-102">
          <mxGeometry y="104" width="210" height="20" as="geometry" />
        </mxCell>
        <mxCell id="98jvWtRxm2SsTrjCTN04-119" value="+ productCategory: ProductCategory" style="text;strokeColor=none;fillColor=none;align=left;verticalAlign=top;spacingLeft=4;spacingRight=4;overflow=hidden;rotatable=0;points=[[0,0.5],[1,0.5]];portConstraint=eastwest;whiteSpace=wrap;html=1;" vertex="1" parent="98jvWtRxm2SsTrjCTN04-102">
          <mxGeometry y="124" width="210" height="36" as="geometry" />
        </mxCell>
        <mxCell id="98jvWtRxm2SsTrjCTN04-114" value="" style="endArrow=block;endFill=1;html=1;edgeStyle=orthogonalEdgeStyle;align=left;verticalAlign=top;rounded=0;fontSize=12;startSize=8;endSize=8;curved=1;entryX=-0.001;entryY=0.09;entryDx=0;entryDy=0;entryPerimeter=0;" edge="1" parent="WIyWlLk6GJQsqaUBKTNV-1" target="98jvWtRxm2SsTrjCTN04-128">
          <mxGeometry x="-1" relative="1" as="geometry">
            <mxPoint x="-60" y="500" as="sourcePoint" />
            <mxPoint x="40" y="500" as="targetPoint" />
          </mxGeometry>
        </mxCell>
        <mxCell id="98jvWtRxm2SsTrjCTN04-118" value="ProductCategory" style="swimlane;fontStyle=0;childLayout=stackLayout;horizontal=1;startSize=26;fillColor=none;horizontalStack=0;resizeParent=1;resizeParentMax=0;resizeLast=0;collapsible=1;marginBottom=0;whiteSpace=wrap;html=1;" vertex="1" parent="WIyWlLk6GJQsqaUBKTNV-1">
          <mxGeometry x="-130" y="1010" width="140" height="78" as="geometry" />
        </mxCell>
        <mxCell id="98jvWtRxm2SsTrjCTN04-120" value="ELECTRONICS" style="text;strokeColor=none;fillColor=none;align=left;verticalAlign=top;spacingLeft=4;spacingRight=4;overflow=hidden;rotatable=0;points=[[0,0.5],[1,0.5]];portConstraint=eastwest;whiteSpace=wrap;html=1;" vertex="1" parent="98jvWtRxm2SsTrjCTN04-118">
          <mxGeometry y="26" width="140" height="26" as="geometry" />
        </mxCell>
        <mxCell id="98jvWtRxm2SsTrjCTN04-121" value="GROCERIES" style="text;strokeColor=none;fillColor=none;align=left;verticalAlign=top;spacingLeft=4;spacingRight=4;overflow=hidden;rotatable=0;points=[[0,0.5],[1,0.5]];portConstraint=eastwest;whiteSpace=wrap;html=1;" vertex="1" parent="98jvWtRxm2SsTrjCTN04-118">
          <mxGeometry y="52" width="140" height="26" as="geometry" />
        </mxCell>
        <mxCell id="98jvWtRxm2SsTrjCTN04-127" value="Customer" style="swimlane;fontStyle=0;childLayout=stackLayout;horizontal=1;startSize=26;fillColor=none;horizontalStack=0;resizeParent=1;resizeParentMax=0;resizeLast=0;collapsible=1;marginBottom=0;whiteSpace=wrap;html=1;" vertex="1" parent="WIyWlLk6GJQsqaUBKTNV-1">
          <mxGeometry x="44" y="471" width="300" height="78" as="geometry" />
        </mxCell>
        <mxCell id="98jvWtRxm2SsTrjCTN04-128" value="+&lt;span style=&quot;font-size: 16px; text-align: center; text-wrap: nowrap;&quot;&gt;&amp;nbsp;billingInformation: BillingInformation&amp;nbsp;&lt;/span&gt;" style="text;strokeColor=none;fillColor=none;align=left;verticalAlign=top;spacingLeft=4;spacingRight=4;overflow=hidden;rotatable=0;points=[[0,0.5],[1,0.5]];portConstraint=eastwest;whiteSpace=wrap;html=1;" vertex="1" parent="98jvWtRxm2SsTrjCTN04-127">
          <mxGeometry y="26" width="300" height="26" as="geometry" />
        </mxCell>
        <mxCell id="98jvWtRxm2SsTrjCTN04-129" value="+&amp;nbsp;&lt;span style=&quot;font-size: 16px; text-align: center; text-wrap: nowrap;&quot;&gt;shoppingCart: ShoppingCart&amp;nbsp;&lt;/span&gt;" style="text;strokeColor=none;fillColor=none;align=left;verticalAlign=top;spacingLeft=4;spacingRight=4;overflow=hidden;rotatable=0;points=[[0,0.5],[1,0.5]];portConstraint=eastwest;whiteSpace=wrap;html=1;" vertex="1" parent="98jvWtRxm2SsTrjCTN04-127">
          <mxGeometry y="52" width="300" height="26" as="geometry" />
        </mxCell>
        <mxCell id="98jvWtRxm2SsTrjCTN04-132" value="" style="endArrow=none;html=1;edgeStyle=orthogonalEdgeStyle;rounded=0;fontSize=12;startSize=8;endSize=8;curved=1;exitX=0.548;exitY=-0.019;exitDx=0;exitDy=0;exitPerimeter=0;" edge="1" parent="WIyWlLk6GJQsqaUBKTNV-1" source="98jvWtRxm2SsTrjCTN04-46">
          <mxGeometry relative="1" as="geometry">
            <mxPoint x="610" y="430" as="sourcePoint" />
            <mxPoint x="700" y="380" as="targetPoint" />
          </mxGeometry>
        </mxCell>
      </root>
    </mxGraphModel>
  </diagram>
</mxfile>
